<svg width="586" height="630" fill="none" xmlns="http://www.w3.org/2000/svg"><path d="M391 68c0-37.555 30.445-68 68-68h57c38.66 0 70 31.34 70 70v65c0 33.137-26.863 60-60 60H391V68ZM0 70C0 31.34 31.34 0 70 0h55c38.66 0 70 31.34 70 70v125H60c-33.137 0-60-26.863-60-60V70ZM49 319c0-27.614 22.386-50 50-50h113v311c0 27.614-22.386 50-50 50H99c-27.614 0-50-22.386-50-50V319ZM375 269h109c27.614 0 50 22.386 50 50v261c0 27.614-22.386 50-50 50h-59c-27.614 0-50-22.386-50-50V269Z" fill="#39B9F1"/><path fill="#39B9F1" d="M195 195h196v279H195z"/></svg>